<svg xmlns="http://www.w3.org/2000/svg" viewBox="0 0 60 60" width="60" height="60">
  <defs>
    <linearGradient id="clevertapGradient" x1="0%" y1="0%" x2="100%" y2="100%">
      <stop offset="0%" style="stop-color:#FF6B35;stop-opacity:1" />
      <stop offset="100%" style="stop-color:#E5432E;stop-opacity:1" />
    </linearGradient>
  </defs>
  <!-- Background circle -->
  <circle cx="30" cy="30" r="28" fill="url(#clevertapGradient)"/>
  <!-- CT Letters -->
  <g fill="#FFFFFF">
    <!-- C letter -->
    <path d="M20 25c0-4.4 3.6-8 8-8 2.2 0 4.2 0.9 5.7 2.3l-2.1 2.1c-0.9-0.9-2.2-1.4-3.6-1.4-2.8 0-5 2.2-5 5s2.2 5 5 5c1.4 0 2.7-0.5 3.6-1.4l2.1 2.1c-1.5 1.4-3.5 2.3-5.7 2.3-4.4 0-8-3.6-8-8z"/>
    <!-- T letter -->
    <path d="M32 17h12v3h-4.5v14h-3V20H32v-3z"/>
  </g>
  <!-- Decorative tap indicator -->
  <circle cx="45" cy="42" r="6" fill="#FFFFFF" opacity="0.3"/>
  <circle cx="45" cy="42" r="4" fill="#FFFFFF" opacity="0.5"/>
  <circle cx="45" cy="42" r="2" fill="#FFFFFF"/>
</svg>
